<?xml version="1.0" encoding="utf-8"?>
<!-- Generator: Adobe Illustrator 21.1.0, SVG Export Plug-In . SVG Version: 6.00 Build 0)  -->
<svg version="1.1" id="Capa_1" xmlns="http://www.w3.org/2000/svg" xmlns:xlink="http://www.w3.org/1999/xlink" x="0px" y="0px"
	 viewBox="0 0 600 300" style="enable-background:new 0 0 600 300;" xml:space="preserve">
<style type="text/css">
	.st0{fill:#A1A2A5;}
</style>
<g>
	<path class="st0" d="M309.8,150.5c0,1.9-2.2,9.6-9.7,9.6c-7.5,0-9.8-7-9.8-9.8c0-1.4,0.3-2.4,0.3-2.4h-2.7c0,0,0,11.7,0,12.8
		c0,1.2,0.3,1.7,1.7,1.7c1.4,0,19.9,0,20.9,0c1.1,0,1.7-0.5,1.7-2.5c0-2,0-12.1,0-12.1h-3.1C309.2,147.9,309.8,148.6,309.8,150.5z"
		/>
	<path class="st0" d="M310.6,138.1c-0.9,0-2,0-2.9,0c-0.9,0-1.7,0.7-1.7,1.8s0,1.4,0,2.6s0.7,1.8,1.7,1.8s1.7,0,2.3,0
		c1.4,0,2.3-0.6,2.3-1.5c0-0.9,0-2.1,0-3.1C312.3,138.8,311.6,138.1,310.6,138.1z"/>
	<circle class="st0" cx="300" cy="150.5" r="6.1"/>
	<path class="st0" d="M300,113c-20.4,0-37,16.6-37,37c0,20.4,16.6,37,37,37c20.4,0,37-16.6,37-37C337,129.6,320.4,113,300,113z
		 M315.9,161.6c0,3.3-1.9,4.7-5.1,4.7c-3.2,0-18.5,0-21.6,0c-3.1,0-5.1-1-5.1-6.4c0-5.5,0-15.5,0-20.1c0-4.6,2.5-5.4,5.1-5.4
		c3.5,0,20.2,0,22.3,0s4.4,1,4.4,5.3C315.9,143.9,315.9,158.3,315.9,161.6z"/>
</g>
</svg>
