<?xml version="1.0" encoding="utf-8"?>
<!-- Generator: Adobe Illustrator 21.1.0, SVG Export Plug-In . SVG Version: 6.00 Build 0)  -->
<svg version="1.1" id="Capa_1" xmlns="http://www.w3.org/2000/svg" xmlns:xlink="http://www.w3.org/1999/xlink" x="0px" y="0px"
	 viewBox="0 0 600 300" style="enable-background:new 0 0 600 300;" xml:space="preserve">
<style type="text/css">
	.st0{fill:url(#SVGID_1_);}
	.st1{fill:url(#SVGID_2_);}
	.st2{fill:url(#SVGID_3_);}
	.st3{fill:#4CBAB9;}
</style>
<g>
	<g>
		<linearGradient id="SVGID_1_" gradientUnits="userSpaceOnUse" x1="71.0064" y1="224.5766" x2="131.5716" y2="161.5278">
			<stop  offset="2.578510e-03" style="stop-color:#B3DBCF"/>
			<stop  offset="0.9974" style="stop-color:#2CA2A4"/>
		</linearGradient>
		<path class="st0" d="M41,198.8c0,0,21.4,17.8,38.4,17.7s26.7-17,36.4-34s10-24.1,10-24.1s11.3-8,24.6,0.8
			c13.4,8.9,10.7,15.1,10.7,15.1s-16.8,26.8-35.5,49.1c-9.2,11-17.4,19.2-23.2,24.7c-5.1,4.8-13.1,4.4-17.8-0.8L41,198.8z"/>
		<linearGradient id="SVGID_2_" gradientUnits="userSpaceOnUse" x1="158.5024" y1="134.2374" x2="21.5985" y2="176.5845">
			<stop  offset="2.578510e-03" style="stop-color:#B3DBCF"/>
			<stop  offset="0.9974" style="stop-color:#2CA2A4"/>
		</linearGradient>
		<path class="st1" d="M35.7,131c0,0-8,26.7,20.5,24.9c28.5-1.8,49.9-45.4,78.4-45.4s49,31.2,26.7,64.1c0,0-1.8-17.8-25.8-17.8
			S97.1,196,57.9,196S21.4,155.9,35.7,131z"/>
		<linearGradient id="SVGID_3_" gradientUnits="userSpaceOnUse" x1="13.17" y1="120.4177" x2="102.6695" y2="120.4177">
			<stop  offset="2.578510e-03" style="stop-color:#B3DBCF"/>
			<stop  offset="0.9974" style="stop-color:#2CA2A4"/>
		</linearGradient>
		<path class="st2" d="M33.9,187.7c0,0-12.9-31.3,4.9-61.6s51.7-36.5,75.7-22.3s48.7-11.3,31-31S75.9,41.5,43.1,71.3
			S0.5,142.4,33.9,187.7z"/>
	</g>
	<g>
		<g>
			<path class="st3" d="M211.5,123.9c0-11.4,5.6-17.2,16.9-17.2c11.3,0,16.9,5.7,16.9,17.2v10.2h-8.7v-10.2c0-5.8-2.7-8.6-8.2-8.7
				h-0.1c-5.4,0-8.2,2.9-8.2,8.7v8.4c0,5,4.5,10.7,13.6,17.2c7.7,5.5,11.6,12,11.6,19.5v11.8c0,11.5-5.6,17.2-16.9,17.2
				c-11.3,0-16.9-5.8-16.9-17.2v-10.2h8.7v10.2c0,5.8,2.8,8.7,8.3,8.7c5.5,0,8.2-2.9,8.2-8.7v-10.6c0-5.3-4.5-11.2-13.6-17.7
				c-7.7-5.5-11.6-12.1-11.6-19.9V123.9z"/>
			<path class="st3" d="M283.5,179.5l17.5-71.3h9.2v88.3H302v-71.7l-15.7,71.7H281l-16.1-71.1v71.1h-8.3v-88.3h9.2L283.5,179.5z"/>
			<path class="st3" d="M354.8,166.2l4,30.3h-8.8l-2.6-19.7h-17.9l-2.7,19.7h-8.7l4-30.2l9.2-58.2h14.3L354.8,166.2z M346.3,168.2
				l-7.8-54.7l-7.8,54.7H346.3z"/>
			<path class="st3" d="M366.9,108.2l17.2,0c10.3,0,15.5,5.7,15.5,17.2v14c0,7.1-3.7,12-11.2,14.8l14.8,42.4h-9.6l-12.1-41.2
				l-5.8,0.8v40.4h-8.7V108.2z M375.6,116.7v31.4h5.5c2.2,0,3.7-0.2,4.7-0.5c3.4-1.4,5.2-4.1,5.2-8.2v-14c0-5.8-2.7-8.7-8.2-8.7
				H375.6z"/>
			<path class="st3" d="M439.7,108.2v8.5h-12.6v79.8h-8.7v-79.8h-12.6v-8.5H439.7z"/>
			<path class="st3" d="M495.6,196.5h-14.3l-9.2-58.1l-4-30.2h8.8l11.5,82.1l11.6-82.1h8.8l-4,30.3L495.6,196.5z"/>
			<path class="st3" d="M516.8,108.2h30.1v8.5h-21.4v31.4h18.4v8.5h-18.4V188h21.4v8.5h-30.1V108.2z"/>
			<path class="st3" d="M586.8,108.2v8.5h-12.6v79.8h-8.7v-79.8H553v-8.5H586.8z"/>
		</g>
	</g>
</g>
</svg>
