<?xml version="1.0" encoding="utf-8"?>
<!-- Generator: Adobe Illustrator 21.1.0, SVG Export Plug-In . SVG Version: 6.00 Build 0)  -->
<svg version="1.1" id="Capa_1" xmlns="http://www.w3.org/2000/svg" xmlns:xlink="http://www.w3.org/1999/xlink" x="0px" y="0px"
	 viewBox="0 0 600 300" style="enable-background:new 0 0 600 300;" xml:space="preserve">
<style type="text/css">
	.st0{fill:#A1A2A5;}
</style>
<path class="st0" d="M300,113c-20.4,0-37,16.6-37,37c0,20.4,16.6,37,37,37c20.4,0,37-16.6,37-37C337,129.6,320.4,113,300,113z
	 M318.3,141.6c-2.1,11.6-13.6,21.5-17.1,23.8c-3.5,2.3-6.6-0.9-7.8-3.3c-1.3-2.7-5.3-17.5-6.3-18.7c-1-1.2-4.1,1.2-4.1,1.2l-1.5-2
	c0,0,6.3-7.5,11.1-8.5c5.1-1,5.1,7.8,6.3,12.7c1.2,4.7,2,7.4,3,7.4c1,0,3-2.6,5.2-6.7c2.2-4-0.1-7.6-4.3-5.1
	C304.4,132.4,320.4,130,318.3,141.6z"/>
</svg>
